<svg height="300" viewBox="0 0 1012 300" width="1012" xmlns="http://www.w3.org/2000/svg">
  <style>
    .b {fill: #0d1117}
    .l {fill: #fff}
    @media (prefers-color-scheme: light) {
      .b {fill: #fff}
      .l {fill: #0d1117}
    }
  </style>
  <rect class="b" height="300" width="1012" x="0" y="0" />
  <path d="M432.42 140.92L432.42 140.92Q436.61 140.92 438.97 143.77Q441.33 146.63 441.33 151.67L441.33 151.67L423.28 151.67Q423.28 146.60 425.71 143.76Q428.14 140.92 432.42 140.92ZM445.08 161.81L441.27 161.81Q440.54 164.12 438.31 165.41Q436.08 166.70 432.86 166.70L432.86 166.70Q428.47 166.70 425.87 163.78Q423.28 160.87 423.28 155.92L423.28 155.92L423.28 154.83L445.22 154.83L445.22 152.34Q445.22 147.63 443.71 144.32Q442.21 141.01 439.35 139.26Q436.49 137.52 432.42 137.52L432.42 137.52Q428.52 137.52 425.59 139.23Q422.67 140.95 421.05 144.04Q419.44 147.13 419.44 151.29L419.44 151.29L419.44 155.89Q419.44 162.63 422.97 166.38Q426.50 170.13 432.86 170.13L432.86 170.13Q436.05 170.13 438.62 169.10Q441.18 168.08 442.87 166.20Q444.55 164.33 445.08 161.81L445.08 161.81ZM458.17 146.25L458.17 146.25Q458.17 152.67 466.55 154.63L466.55 154.63L471.21 155.74Q474.43 156.50 475.81 157.75Q477.19 158.99 477.19 161.16L477.19 161.16Q477.19 163.74 475.09 165.29Q473.00 166.85 469.45 166.85L469.45 166.85Q466.17 166.85 463.99 165.48Q461.81 164.12 461.19 161.69L461.19 161.69L457.21 161.69Q457.65 165.59 460.90 167.86Q464.15 170.13 469.28 170.13L469.28 170.13Q474.67 170.13 477.92 167.61Q481.17 165.09 481.17 160.93L481.17 160.93Q481.17 157.59 479.03 155.52Q476.89 153.46 472.35 152.37L472.35 152.37L468.08 151.38Q464.85 150.62 463.45 149.38Q462.04 148.15 462.04 146.10L462.04 146.10Q462.04 143.64 464.00 142.18Q465.97 140.71 469.25 140.71L469.25 140.71Q472.26 140.71 474.29 142.05Q476.31 143.38 476.81 145.69L476.81 145.69L480.58 145.69Q480.09 141.94 477.04 139.73Q473.99 137.52 469.36 137.52L469.36 137.52Q464.38 137.52 461.28 139.94Q458.17 142.35 458.17 146.25Z" fill="#03d8d8" />
  <path class="l" d="M503.50 170.16L503.50 170.16Q507.07 170.16 509.60 168.74Q512.14 167.31 513.25 164.65L513.25 164.65L513.66 164.65L513.66 169.63L517.35 169.63L517.35 147.95Q517.35 143.14 514.38 140.46Q511.41 137.78 506.04 137.78L506.04 137.78Q503.00 137.78 500.52 138.82Q498.05 139.86 496.48 141.68Q494.91 143.50 494.62 145.87L494.62 145.87L498.43 145.87Q499.10 143.58 501.08 142.35Q503.06 141.12 506.04 141.12L506.04 141.12Q509.68 141.12 511.58 142.92Q513.49 144.73 513.49 148.13L513.49 148.13L513.49 151.11L504.34 151.52Q499.13 151.76 496.27 154.15Q493.42 156.53 493.42 160.69L493.42 160.69Q493.42 164.97 496.19 167.56Q498.95 170.16 503.50 170.16ZM504.43 166.76L504.43 166.76Q501.15 166.76 499.26 165.13Q497.37 163.51 497.37 160.69L497.37 160.69Q497.37 155.01 504.61 154.69L504.61 154.69L513.49 154.31L513.49 158.70Q513.49 160.96 512.28 162.79Q511.08 164.62 509.03 165.69Q506.98 166.76 504.43 166.76ZM532.35 146.25L532.35 146.25Q532.35 152.67 540.73 154.63L540.73 154.63L545.39 155.74Q548.61 156.50 549.99 157.75Q551.37 158.99 551.37 161.16L551.37 161.16Q551.37 163.74 549.27 165.29Q547.18 166.85 543.63 166.85L543.63 166.85Q540.35 166.85 538.17 165.48Q535.99 164.12 535.37 161.69L535.37 161.69L531.39 161.69Q531.83 165.59 535.08 167.86Q538.33 170.13 543.46 170.13L543.46 170.13Q548.85 170.13 552.10 167.61Q555.35 165.09 555.35 160.93L555.35 160.93Q555.35 157.59 553.21 155.52Q551.07 153.46 546.53 152.37L546.53 152.37L542.25 151.38Q539.03 150.62 537.63 149.38Q536.22 148.15 536.22 146.10L536.22 146.10Q536.22 143.64 538.18 142.18Q540.15 140.71 543.43 140.71L543.43 140.71Q546.44 140.71 548.47 142.05Q550.49 143.38 550.99 145.69L550.99 145.69L554.76 145.69Q554.27 141.94 551.22 139.73Q548.17 137.52 543.54 137.52L543.54 137.52Q538.56 137.52 535.46 139.94Q532.35 142.35 532.35 146.25ZM579.34 129.84L575.51 129.84L575.51 138.05L567.01 138.05L567.01 141.30L575.51 141.30L575.51 160.49Q575.51 163.59 576.77 165.66Q578.03 167.72 580.55 168.75Q583.07 169.78 586.84 169.78L586.84 169.78Q588.22 169.78 590.04 169.66Q591.85 169.54 592.56 169.42L592.56 169.42L592.56 166.14Q591.80 166.26 590.24 166.32Q588.69 166.38 587.05 166.38L587.05 166.38Q583.30 166.38 581.32 164.84Q579.34 163.30 579.34 160.37L579.34 160.37L579.34 141.30L592.56 141.30L592.56 138.05L579.34 138.05L579.34 129.84Z" />
</svg>
